<!-- Generated by IcoMoon.io -->
<svg version="1.1" xmlns="http://www.w3.org/2000/svg" width="32" height="32" viewBox="0 0 32 32">
<title>basketball</title>
<path d="M4.088 17.99c-0.058-0.489-0.088-0.988-0.088-1.493 0-2.803 0.922-5.39 2.48-7.474 3.040 0.159 5.887 1.052 8.365 2.505-1.866 3.831-5.797 6.47-10.345 6.47-0.119 0-0.393-0.007-0.412-0.007v0zM4.25 18.995c1.157 5.707 6.202 10.002 12.25 10.002 0.332 0 0.66-0.013 0.986-0.038v0c-0.316-1.099-0.486-2.261-0.486-3.462 0-3.402 1.359-6.487 3.564-8.741-1.32-1.848-2.971-3.442-4.867-4.697-2.047 4.112-6.292 6.938-11.198 6.938-0.084 0-0.167-0.001-0.25-0.002v0 0zM15.733 4.021c-3.351 0.203-6.345 1.726-8.47 4.055v0c2.888 0.259 5.596 1.147 7.983 2.527 0.488-1.275 0.755-2.659 0.755-4.106 0-0.85-0.092-1.679-0.267-2.477v0 0zM16.75 4c5.593 0.11 10.285 3.893 11.764 9.036-2.752 0.215-5.253 1.32-7.216 3.028-1.41-1.944-3.169-3.618-5.187-4.929 0.573-1.434 0.888-2.999 0.888-4.637 0-0.855-0.086-1.691-0.25-2.498v0zM23.974 26.518c-1.58 1.181-3.449 1.996-5.481 2.322v0c-0.321-1.058-0.493-2.18-0.493-3.342 0-3.056 1.192-5.833 3.136-7.892 1.65 2.603 2.668 5.645 2.839 8.912v0 0zM24.921 25.735c2.506-2.286 4.079-5.578 4.079-9.238 0-0.848-0.084-1.676-0.245-2.476-2.636 0.169-5.030 1.225-6.886 2.873 1.68 2.588 2.763 5.6 3.053 8.84v0 0z"></path>
</svg>
